<?xml version="1.0" encoding="UTF-8"?>
<!DOCTYPE svg PUBLIC "-//W3C//DTD SVG 1.1//EN" "http://www.w3.org/Graphics/SVG/1.1/DTD/svg11.dtd">
<svg xmlns="http://www.w3.org/2000/svg" version="1.1" width="64px" height="64px" style="shape-rendering:geometricPrecision; text-rendering:geometricPrecision; image-rendering:optimizeQuality; fill-rule:evenodd; clip-rule:evenodd" xmlns:xlink="http://www.w3.org/1999/xlink">
<g><path style="opacity:0.945" fill="#000000" d="M 11.5,-0.5 C 21.1667,-0.5 30.8333,-0.5 40.5,-0.5C 49.9038,4.65769 53.5705,12.6577 51.5,23.5C 57.3038,23.7182 61.3038,26.3849 63.5,31.5C 63.5,37.1667 63.5,42.8333 63.5,48.5C 61.6985,55.6387 57.3651,60.6387 50.5,63.5C 37.5,63.5 24.5,63.5 11.5,63.5C 5.40726,61.0748 1.40726,56.7415 -0.5,50.5C -0.5,37.8333 -0.5,25.1667 -0.5,12.5C 1.43416,6.23347 5.43416,1.90014 11.5,-0.5 Z M 19.5,12.5 C 24.1785,12.3342 28.8452,12.5008 33.5,13C 37.1044,14.3339 38.271,16.8339 37,20.5C 33.958,22.8892 30.458,23.8892 26.5,23.5C 22.542,23.8892 19.042,22.8892 16,20.5C 14.7801,16.7069 15.9468,14.0402 19.5,12.5 Z M 16.5,38.5 C 26.5056,38.3335 36.5056,38.5002 46.5,39C 50.4831,42.4078 50.1497,45.4078 45.5,48C 36.1667,48.6667 26.8333,48.6667 17.5,48C 12.7219,45.2009 12.3886,42.0342 16.5,38.5 Z"/></g>
</svg>
