<?xml version="1.0" encoding="UTF-8"?>
<!DOCTYPE svg PUBLIC "-//W3C//DTD SVG 1.1//EN" "http://www.w3.org/Graphics/SVG/1.1/DTD/svg11.dtd">
<svg xmlns="http://www.w3.org/2000/svg" version="1.1" width="64px" height="64px" style="shape-rendering:geometricPrecision; text-rendering:geometricPrecision; image-rendering:optimizeQuality; fill-rule:evenodd; clip-rule:evenodd" xmlns:xlink="http://www.w3.org/1999/xlink">
<g><path style="opacity:0.889" fill="#000000" d="M 7.5,14.5 C 23.328,13.3386 39.328,13.1719 55.5,14C 47.9876,20.2524 39.9876,25.7524 31.5,30.5C 23.2102,25.5331 15.2102,20.1997 7.5,14.5 Z"/></g>
<g><path style="opacity:0.938" fill="#000000" d="M 4.5,15.5 C 12.2879,20.7812 19.9546,26.2812 27.5,32C 29.1012,32.2734 30.6012,32.7734 32,33.5C 40.8871,28.452 49.3871,22.7853 57.5,16.5C 58.6657,27.1511 58.8324,37.8177 58,48.5C 40.5738,49.6582 23.0738,49.8249 5.5,49C 4.51259,37.9146 4.17925,26.748 4.5,15.5 Z"/></g>
</svg>
