<?xml version="1.0" encoding="UTF-8"?>
<!DOCTYPE svg PUBLIC "-//W3C//DTD SVG 1.1//EN" "http://www.w3.org/Graphics/SVG/1.1/DTD/svg11.dtd">
<svg xmlns="http://www.w3.org/2000/svg" version="1.1" width="64px" height="64px" style="shape-rendering:geometricPrecision; text-rendering:geometricPrecision; image-rendering:optimizeQuality; fill-rule:evenodd; clip-rule:evenodd" xmlns:xlink="http://www.w3.org/1999/xlink">
<g><path style="opacity:0.947" fill="#202020" d="M 14.5,5.5 C 18.6424,5.9029 22.6424,6.9029 26.5,8.5C 30.8333,7.16667 35.1667,7.16667 39.5,8.5C 42.7096,7.64575 45.8762,6.64575 49,5.5C 50.3261,5.75493 51.3261,6.4216 52,7.5C 52.1095,12.0556 53.1095,16.3889 55,20.5C 56.6732,31.9989 51.8399,38.8323 40.5,41C 41.9171,46.2589 42.9171,51.5922 43.5,57C 36.5,57.6667 29.5,57.6667 22.5,57C 24.229,55.2111 24.8957,53.0444 24.5,50.5C 21.3508,50.7886 18.3508,50.2886 15.5,49C 13.0736,45.4841 10.407,42.1508 7.5,39C 9.36968,37.4356 11.3697,37.4356 13.5,39C 15.087,42.2559 17.587,44.4226 21,45.5C 23.1303,44.8592 24.6303,43.5259 25.5,41.5C 11.3664,36.6088 7.69977,27.4421 14.5,14C 13.4092,11.1821 13.4092,8.3488 14.5,5.5 Z"/></g>
</svg>
